<svg xmlns="http://www.w3.org/2000/svg" xmlns:xlink="http://www.w3.org/1999/xlink" width="679.3" height="265.2" viewBox="0 0 679.3 265.2">
  <defs>
    <style>
      .cls-1 {
        fill: none;
        stroke-miterlimit: 10;
        stroke-width: 3px;
        stroke: url(#linear-gradient);
      }

      .cls-2 {
        fill: #f8663f;
      }

      .cls-3 {
        fill: url(#linear-gradient-2);
      }
    </style>
    <linearGradient id="linear-gradient" x1="9.82" y1="137.21" x2="209.53" y2="137.21" gradientUnits="userSpaceOnUse">
      <stop offset="0" stop-color="#436169"/>
      <stop offset="1" stop-color="#415f66"/>
    </linearGradient>
    <linearGradient id="linear-gradient-2" x1="498.47" y1="90.47" x2="689.11" y2="90.47" xlink:href="#linear-gradient"/>
  </defs>
  <g id="OBJECTS">
    <g>
      <path class="cls-1" d="M187.9,16.2a9.4,9.4,0,0,1,2.9-7.1,9.6,9.6,0,0,1,7.1-3,10.2,10.2,0,0,1,7.2,3,9.4,9.4,0,0,1,2.9,7.1V170q0,40.5-28.9,69.5t-69.5,28.8q-40.5,0-69.5-28.8T11.3,170V16.2a9.7,9.7,0,0,1,2.9-7.1,9.8,9.8,0,0,1,7.2-3,9.4,9.4,0,0,1,7.1,3,9.4,9.4,0,0,1,3,7.1V170q0,32.3,22.9,55.2t55.2,22.9c21.6,0,40.1-7.6,55.3-22.9" transform="translate(-9.8 -4.6)"/>
      <g>
        <path class="cls-2" d="M461.9,104.5A178.3,178.3,0,0,0,501,88.9a33.8,33.8,0,0,0,4.7-3,9.7,9.7,0,0,1,1.5-1h.4c.3,0,.5.3.7.5s.3.2.3.5,0,.2-.3.4a3.4,3.4,0,0,1-1.4,1.5,43.1,43.1,0,0,1-7.8,4.9A199.2,199.2,0,0,1,461.9,108a19.7,19.7,0,0,1-7.6,1.4c-6.8,0-11.3-4.4-11.3-11.3V96.7a29.1,29.1,0,0,1,2.6-9.6,87.7,87.7,0,0,1,6.9-12.3c.7-.7,1.1-1.4,1.6-1.9a4.5,4.5,0,0,1,2.6-1.4,4.3,4.3,0,0,1,4,3.8,4.7,4.7,0,0,1-.2,1.6,39.6,39.6,0,0,1-2.1,4.7,111.6,111.6,0,0,0-5.9,11.3,26.8,26.8,0,0,0-2.2,5.7,7.5,7.5,0,0,0-.2,2.1c0,2.9,1.7,4.5,5.4,4.5h1.9A12.9,12.9,0,0,0,461.9,104.5Zm-.7-47.4A119.4,119.4,0,0,1,468,40.4a8.6,8.6,0,0,1,1.7-2.4,3.4,3.4,0,0,1,2.8-1.4,3,3,0,0,1,1.9.5,3.3,3.3,0,0,1,1.6,3,5,5,0,0,1-.2,1.7c-.9,2.1-2.4,3.8-3.5,5.6s-3.8,5.9-5.5,9a5.3,5.3,0,0,0-.4,1.9v1.4a2.5,2.5,0,0,1-2.6,2.8h-.5c-1.6,0-2.6-1.4-2.6-3.5A8.7,8.7,0,0,0,461.2,57.1Z" transform="translate(-9.8 -4.6)"/>
        <path class="cls-3" d="M576.5,70.6a1.8,1.8,0,0,0-1.2.3C568,72.1,561,74.1,553.9,76s-14.6,3.6-21.9,3.9c-1.4.2-1.7.2-1.7,1v.9a11.6,11.6,0,0,1,.3,3.2c0,5.3-2,10.2-4.9,14.8a31.7,31.7,0,0,1-7.3,7.8,15,15,0,0,1-9,3.4,8.2,8.2,0,0,1-2.2-.2,10.6,10.6,0,0,1-7.5-6.1,20,20,0,0,1-1.2-6.1,17.8,17.8,0,0,1,1.9-8,24.1,24.1,0,0,1,9.5-10,8.1,8.1,0,0,1,4.9-1.4h.9a5,5,0,0,1,3.9,2.4,1.8,1.8,0,0,1,.3,1.2,2.3,2.3,0,0,1-2,2.2c-7,1.5-10,6.6-12.1,12.6a6.6,6.6,0,0,0-.3,2.5,6.1,6.1,0,0,0,.5,2.9,4.1,4.1,0,0,0,4.1,3.2h.8a12.7,12.7,0,0,0,5.6-2.7,23.9,23.9,0,0,0,9.2-13.4,11.3,11.3,0,0,0,.5-3.9,10.5,10.5,0,0,0-.5-3.9,7.1,7.1,0,0,0-2.2-3.9,2.2,2.2,0,0,1-1-1.7,2.2,2.2,0,0,1,.5-1.2,2.5,2.5,0,0,1,1.7-1,4.4,4.4,0,0,1,1.5.5c.2,0,.2,0,.2.3a8.9,8.9,0,0,0,6.6,2.4,38.7,38.7,0,0,0,5.6-.5c9.2-.7,17.7-3.9,26.5-6.8,3.9-1.2,7.5-2.7,11.4-3.9l2.9-.7h.8a4.4,4.4,0,0,1,4.6,4.4v1.2a16,16,0,0,1-1,3.1c-1.4,3.4-3.1,6.8-4.8,10-4.7,9.5-9.3,19-13.2,28.7a6.1,6.1,0,0,0-.9,3.2v.5a14.2,14.2,0,0,0,3.4-2.2,139.1,139.1,0,0,0,11.1-12.2,313.2,313.2,0,0,1,30.4-31.6,99.2,99.2,0,0,1,9-7.3,25,25,0,0,1,7.6-3.9,10.6,10.6,0,0,1,2.4-.2c2.9,0,5.1,1.7,5.8,5.1a23.6,23.6,0,0,1,.5,6,78.6,78.6,0,0,0,.3,8.3c.9,6.1,4.6,9.7,9.9,12.2a37.7,37.7,0,0,0,10.3,2.2h3.6a103.8,103.8,0,0,0,19.2-1.7,37.4,37.4,0,0,0,8.5-3l1.2-.4c.3,0,.8,0,1,.4v.5c0,.3,0,.3-.2.5a9.2,9.2,0,0,1-2.2,1.7,36.8,36.8,0,0,1-8,2.5A105.2,105.2,0,0,1,658,96.2c-2,0-3.7-.3-5.4-.3a24.7,24.7,0,0,1-14.8-5.3,19.1,19.1,0,0,1-7-10.7,51.7,51.7,0,0,1-1-8.5V66.3c0-2-.5-2.7-1.7-2.7a3.9,3.9,0,0,0-1.5.2,23.6,23.6,0,0,0-6.5,3.4A173.1,173.1,0,0,0,599.9,84c-8.8,8.5-16.6,18-24.6,27.3a75.7,75.7,0,0,1-5.3,6,13.4,13.4,0,0,1-5.1,3.9,4.3,4.3,0,0,1-1.7.3,4.8,4.8,0,0,1-4.7-3.7v-3.9a68.4,68.4,0,0,1,5.6-16.5c3.9-8,8-16.1,12.4-23.8.5-1,1.2-1.7,1.2-2.7A1.7,1.7,0,0,0,576.5,70.6Z" transform="translate(-9.8 -4.6)"/>
        <path class="cls-2" d="M261.4,60.6a3.6,3.6,0,0,0-2,.4c-12,2-23.5,5.2-35.1,8.4s-23.8,6-35.8,6.4c-2.4.4-2.8.4-2.8,1.6V79a21.9,21.9,0,0,1,.4,5.1c0,8.8-3.2,16.8-7.9,24.3a52,52,0,0,1-12,12.8c-4.4,3.1-9.1,5.5-14.7,5.5a11.1,11.1,0,0,1-3.6-.4,17.2,17.2,0,0,1-12.3-9.9,31.7,31.7,0,0,1-2-10,28.8,28.8,0,0,1,3.2-13.1A37.6,37.6,0,0,1,152.3,77a13.5,13.5,0,0,1,8-2.4h1.5a8.6,8.6,0,0,1,6.4,4,3.6,3.6,0,0,1,.4,2,3.8,3.8,0,0,1-3.2,3.5c-11.5,2.4-16.3,10.8-19.9,20.7a12.3,12.3,0,0,0-.4,4,10.1,10.1,0,0,0,.8,4.8c1.2,3.6,3.6,5.2,6.8,5.2h1.2a18.9,18.9,0,0,0,9.1-4.4,39,39,0,0,0,15.2-21.9,18.7,18.7,0,0,0,.8-6.4,16.8,16.8,0,0,0-.8-6.3,11.6,11.6,0,0,0-3.6-6.4,3.5,3.5,0,0,1-1.6-2.8,3.1,3.1,0,0,1,.8-2,4,4,0,0,1,2.8-1.6,5.7,5.7,0,0,1,2.4.8c.4,0,.4,0,.4.4,3.2,3.2,6.7,4,10.7,4a78.1,78.1,0,0,0,9.2-.8c15.1-1.2,29-6.4,43.4-11.2,6.3-1.9,12.3-4.3,18.7-6.3l4.7-1.2h1.2a7.3,7.3,0,0,1,7.6,7.2v1.9a25.9,25.9,0,0,1-1.6,5.2c-2.4,5.6-5.2,11.2-7.9,16.3-7.6,15.6-15.2,31.1-21.5,47a10,10,0,0,0-1.6,5.2v.8c2.3-.8,3.9-2.4,5.5-3.6a198.6,198.6,0,0,0,18.3-19.9C281.7,94.5,298,77,315.9,61a162.8,162.8,0,0,1,14.7-11.9c4-2.8,8-5.2,12.4-6.4a15,15,0,0,1,4-.4c4.7,0,8.3,2.8,9.5,8.4a40.2,40.2,0,0,1,.8,9.9c0,4.4,0,8.8.4,13.6,1.6,9.9,7.6,15.9,16.3,19.9a57.1,57.1,0,0,0,16.7,3.6h6a167.7,167.7,0,0,0,31.5-2.8c4.7-1.2,9.5-2.4,13.9-4.8.4-.4,1.2-.4,2-.8a1.6,1.6,0,0,1,1.6.8v.8c0,.4,0,.4-.4.8s-2.4,2-3.6,2.8a56.1,56.1,0,0,1-13.1,4,163.2,163.2,0,0,1-33.9,3.9c-3.2,0-5.9-.3-8.7-.3a41.7,41.7,0,0,1-24.3-8.8c-6-4.4-9.6-10.4-11.6-17.5a88.4,88.4,0,0,1-1.6-14V53.5c0-3.2-.7-4.4-2.7-4.4a5.1,5.1,0,0,0-2.4.4,34.7,34.7,0,0,0-10.8,5.6,272.6,272.6,0,0,0-33,27.4c-14.3,14-27.1,29.5-40.2,44.6a104.9,104.9,0,0,1-8.8,10,21.9,21.9,0,0,1-8.3,6.4,10.3,10.3,0,0,1-2.8.3,7.6,7.6,0,0,1-7.6-5.9v-6.4c1.6-9.5,5.2-18.3,9.2-27.1,6.3-13.1,13.1-26.2,20.3-39,.8-1.6,2-2.8,2-4.4A3.6,3.6,0,0,0,261.4,60.6Z" transform="translate(-9.8 -4.6)"/>
      </g>
      <circle class="cls-2" cx="153.5" cy="221.8" r="5.3"/>
      <circle class="cls-2" cx="66.9" cy="95" r="31.1"/>
      <circle class="cls-2" cx="178.2" cy="13.1" r="5.3"/>
    </g>
  </g>
</svg>
