<?xml version="1.0" encoding="utf-8"?>
<!-- Generator: Adobe Illustrator 24.0.1, SVG Export Plug-In . SVG Version: 6.00 Build 0)  -->
<svg version="1.1" id="Layer_1" xmlns="http://www.w3.org/2000/svg" xmlns:xlink="http://www.w3.org/1999/xlink" x="0px" y="0px"
	 viewBox="0 0 693.9 273" style="enable-background:new 0 0 693.9 273;" xml:space="preserve">
<style type="text/css">
	.st0{fill:none;stroke:#FFFFFF;stroke-width:3;stroke-miterlimit:10;}
	.st1{fill:#FFFFFF;}
</style>
<g id="BACKGROUND">
</g>
<g>
	<g>
		<path class="st0" d="M188.65,16.81c0-2.73,0.95-5.05,2.85-6.95c1.9-1.9,4.22-2.85,6.95-2.85c2.61,0,4.93,0.95,6.95,2.85
			c1.9,1.9,2.85,4.22,2.85,6.95v149.55c0,26.26-9.39,48.78-28.16,67.56c-18.66,18.66-41.17,27.98-67.56,27.98
			c-26.26,0-48.78-9.33-67.56-27.98C26.33,215.14,17,192.62,17,166.36V16.81c0-2.73,0.95-5.05,2.85-6.95
			c1.9-1.9,4.22-2.85,6.95-2.85s5.05,0.95,6.95,2.85c1.9,1.9,2.85,4.22,2.85,6.95v149.55c0,20.92,7.43,38.8,22.28,53.65
			c14.86,14.86,32.74,22.28,53.65,22.28c21.03,0,38.98-7.43,53.83-22.28"/>
	</g>
	<g>
		<g>
			<path class="st1" d="M455.08,102.65c13.3-3.67,25.9-8.48,38.05-15.13c1.61-0.91,2.98-1.83,4.58-2.98
				c0.23-0.23,0.92-0.69,1.37-0.92h0.46c0.23,0,0.46,0.23,0.68,0.46c0.23,0,0.23,0.23,0.23,0.46c0,0.23,0,0.23-0.23,0.46
				c-0.46,0.69-0.91,1.15-1.37,1.37c-2.29,1.84-4.81,3.44-7.57,4.82c-11.46,6.19-23.61,11-36.22,14.9
				c-2.29,0.92-4.81,1.37-7.33,1.37c-6.65,0-11-4.36-11-11v-1.37c0.23-3.21,1.15-6.42,2.52-9.4c1.84-4.13,4.13-8.02,6.65-11.92
				c0.69-0.68,1.15-1.37,1.61-1.83c0.91-0.92,1.83-1.38,2.52-1.38c0.69,0,1.37,0.23,2.06,0.69c1.37,0.92,1.83,1.84,1.83,2.98
				c0,0.46,0,1.15-0.23,1.6c-0.46,1.61-1.37,2.98-2.06,4.58c-2.06,3.67-4.12,7.34-5.73,11c-0.92,1.84-1.6,3.67-2.06,5.5
				c-0.23,0.68-0.23,1.37-0.23,2.06c0,2.75,1.61,4.36,5.27,4.36h1.84C452.33,103.34,453.71,103.1,455.08,102.65z M454.4,56.57
				c1.83-5.5,3.89-11,6.65-16.27c0.46-0.92,0.91-1.61,1.6-2.29c0.69-0.92,1.61-1.38,2.75-1.38c0.46,0,1.15,0,1.83,0.46
				c1.15,0.68,1.61,1.83,1.61,2.98c0,0.46,0,1.15-0.23,1.61c-0.91,2.06-2.29,3.67-3.44,5.5c-1.83,2.75-3.67,5.73-5.27,8.71
				c-0.23,0.46-0.46,1.15-0.46,1.84v1.37c0,1.61-0.92,2.75-2.52,2.75h-0.46c-1.61,0-2.52-1.37-2.52-3.44
				C454.17,57.94,454.17,57.26,454.4,56.57z"/>
			<path class="st1" d="M566.54,69.73c-0.48,0-0.71,0-1.18,0.24c-7.09,1.18-13.95,3.07-20.81,4.96c-7.09,1.89-14.18,3.55-21.28,3.78
				c-1.42,0.24-1.66,0.24-1.66,0.95v0.95c0.24,0.95,0.24,2.13,0.24,3.07c0,5.2-1.89,9.93-4.73,14.42c-1.89,2.84-4.25,5.43-7.09,7.56
				c-2.6,1.89-5.43,3.31-8.75,3.31c-0.71,0-1.42,0-2.13-0.24c-3.31-0.71-5.91-2.84-7.33-5.91c-0.71-2.13-1.18-4.02-1.18-5.91
				c0-2.84,0.71-5.44,1.89-7.8c2.13-4.26,5.2-7.33,9.22-9.69c1.42-0.95,2.84-1.42,4.73-1.42h0.95c1.65,0.24,2.84,0.94,3.78,2.36
				c0.24,0.47,0.24,0.71,0.24,1.18c0,0.94-0.71,1.89-1.89,2.12c-6.86,1.42-9.7,6.39-11.82,12.3c-0.24,0.71-0.24,1.42-0.24,2.36
				c0,0.95,0,1.89,0.48,2.84c0.71,2.13,2.13,3.08,4.02,3.08h0.71c2.13-0.47,3.78-1.18,5.44-2.6c4.49-3.31,7.56-7.57,8.98-13
				c0.48-1.42,0.48-2.6,0.48-3.79s0-2.6-0.48-3.78c-0.24-1.42-0.95-2.6-2.13-3.78c-0.71-0.48-0.94-1.18-0.94-1.66
				c0-0.47,0.24-0.94,0.47-1.18c0.47-0.47,0.95-0.94,1.65-0.94c0.48,0,0.95,0.24,1.42,0.47c0.24,0,0.24,0,0.24,0.24
				c1.89,1.89,4.02,2.36,6.38,2.36c1.66,0,3.55-0.24,5.44-0.47c8.99-0.71,17.26-3.78,25.77-6.62c3.78-1.18,7.33-2.6,11.11-3.78
				l2.84-0.71h0.71c2.6,0,4.49,1.89,4.49,4.26v1.18c-0.24,0.95-0.48,2.13-0.95,3.08c-1.42,3.31-3.08,6.62-4.73,9.69
				c-4.49,9.22-8.99,18.44-12.77,27.9c-0.48,0.71-0.95,1.89-0.95,3.08v0.47c1.42-0.47,2.36-1.42,3.31-2.13
				c4.02-3.78,7.56-7.8,10.87-11.82c9.22-10.87,18.91-21.28,29.56-30.73c2.84-2.6,5.67-4.97,8.75-7.1c2.36-1.65,4.73-3.07,7.33-3.78
				c0.95-0.24,1.66-0.24,2.36-0.24c2.84,0,4.97,1.65,5.67,4.96c0.48,1.89,0.48,3.79,0.48,5.91c0,2.6,0,5.2,0.24,8.04
				c0.95,5.91,4.49,9.46,9.69,11.82c3.08,1.18,6.39,1.89,9.93,2.13h3.55c6.15,0,12.53-0.47,18.68-1.65
				c2.84-0.71,5.67-1.42,8.27-2.84c0.24-0.24,0.71-0.24,1.18-0.47c0.24,0,0.71,0,0.95,0.47v0.48c0,0.24,0,0.24-0.24,0.47
				c-0.48,0.71-1.42,1.18-2.13,1.66c-2.6,1.18-5.2,1.89-7.8,2.36c-6.62,1.42-13.47,2.36-20.09,2.36c-1.89,0-3.55-0.24-5.2-0.24
				c-5.43-0.24-10.16-1.89-14.42-5.2c-3.55-2.6-5.67-6.15-6.86-10.4c-0.47-2.84-0.95-5.67-0.95-8.27v-4.96c0-1.89-0.47-2.6-1.65-2.6
				c-0.48,0-0.95,0-1.42,0.24c-2.36,0.71-4.49,1.89-6.39,3.31c-7.09,4.96-13.47,10.4-19.62,16.31c-8.51,8.27-16.08,17.5-23.88,26.48
				c-1.66,2.13-3.31,4.02-5.2,5.91c-1.42,1.66-3.07,3.08-4.96,3.79c-0.71,0.24-1.18,0.24-1.65,0.24c-2.13,0-4.02-1.42-4.49-3.55
				v-3.78c0.95-5.67,3.07-10.88,5.43-16.08c3.79-7.8,7.8-15.61,12.06-23.17c0.47-0.95,1.18-1.66,1.18-2.6
				C567.24,69.73,567.01,69.73,566.54,69.73z"/>
			<path class="st1" d="M260.12,60.01c-0.78,0-1.16,0-1.94,0.39c-11.61,1.94-22.84,5.03-34.06,8.13
				c-11.61,3.09-23.22,5.81-34.83,6.19c-2.33,0.39-2.71,0.39-2.71,1.55v1.55c0.39,1.55,0.39,3.48,0.39,5.03
				c0,8.52-3.09,16.26-7.74,23.61c-3.09,4.64-6.96,8.9-11.61,12.38c-4.26,3.1-8.9,5.42-14.32,5.42c-1.16,0-2.33,0-3.48-0.39
				c-5.42-1.16-9.68-4.65-12-9.68c-1.16-3.48-1.94-6.58-1.94-9.68c0-4.65,1.16-8.9,3.09-12.77c3.48-6.97,8.52-12,15.1-15.87
				c2.32-1.55,4.65-2.32,7.74-2.32h1.55c2.71,0.39,4.64,1.54,6.19,3.87c0.39,0.77,0.39,1.16,0.39,1.94c0,1.54-1.16,3.09-3.09,3.48
				c-11.23,2.33-15.87,10.45-19.35,20.13c-0.39,1.16-0.39,2.32-0.39,3.87c0,1.55,0,3.1,0.78,4.64c1.16,3.48,3.48,5.03,6.58,5.03
				h1.16c3.48-0.77,6.19-1.94,8.9-4.26c7.35-5.42,12.38-12.39,14.7-21.29c0.78-2.33,0.78-4.26,0.78-6.2s0-4.26-0.78-6.19
				c-0.39-2.32-1.55-4.26-3.48-6.19c-1.16-0.78-1.54-1.94-1.54-2.71c0-0.77,0.39-1.54,0.77-1.94c0.77-0.77,1.55-1.54,2.71-1.54
				c0.78,0,1.55,0.39,2.33,0.77c0.39,0,0.39,0,0.39,0.39c3.1,3.1,6.58,3.87,10.45,3.87c2.71,0,5.81-0.39,8.9-0.77
				c14.71-1.16,28.26-6.19,42.19-10.84c6.19-1.94,12-4.26,18.19-6.19l4.64-1.16h1.16c4.26,0,7.36,3.1,7.36,6.97v1.94
				c-0.39,1.55-0.78,3.48-1.55,5.03c-2.32,5.41-5.03,10.83-7.74,15.87c-7.36,15.1-14.71,30.19-20.9,45.67
				c-0.78,1.16-1.55,3.1-1.55,5.03v0.77c2.32-0.77,3.87-2.32,5.42-3.48c6.58-6.19,12.38-12.77,17.8-19.35
				c15.1-17.8,30.96-34.83,48.39-50.31c4.64-4.26,9.28-8.13,14.32-11.62c3.87-2.71,7.74-5.03,12-6.19c1.55-0.39,2.71-0.39,3.87-0.39
				c4.65,0,8.13,2.71,9.29,8.13c0.78,3.1,0.78,6.2,0.78,9.68c0,4.26,0,8.52,0.39,13.16c1.55,9.68,7.36,15.48,15.87,19.35
				c5.03,1.94,10.45,3.1,16.26,3.48h5.81c10.06,0,20.52-0.77,30.58-2.71c4.64-1.16,9.29-2.32,13.55-4.65
				c0.39-0.39,1.16-0.39,1.94-0.77c0.39,0,1.16,0,1.55,0.77v0.78c0,0.39,0,0.39-0.39,0.77c-0.78,1.16-2.33,1.94-3.48,2.71
				c-4.26,1.94-8.52,3.09-12.77,3.87c-10.84,2.32-22.06,3.87-32.9,3.87c-3.1,0-5.81-0.39-8.52-0.39c-8.9-0.39-16.64-3.1-23.61-8.52
				c-5.81-4.26-9.29-10.06-11.23-17.03c-0.77-4.64-1.55-9.29-1.55-13.55v-8.13c0-3.1-0.77-4.26-2.71-4.26c-0.78,0-1.55,0-2.32,0.39
				c-3.87,1.16-7.36,3.09-10.45,5.42c-11.61,8.13-22.06,17.02-32.13,26.71c-13.93,13.55-26.32,28.64-39.09,43.34
				c-2.71,3.48-5.42,6.58-8.52,9.68c-2.32,2.71-5.03,5.03-8.13,6.2c-1.16,0.39-1.94,0.39-2.71,0.39c-3.48,0-6.58-2.32-7.36-5.81
				v-6.19c1.55-9.29,5.03-17.81,8.9-26.32c6.2-12.77,12.77-25.55,19.74-37.93c0.77-1.55,1.94-2.71,1.94-4.26
				C261.28,60.01,260.89,60.01,260.12,60.01z"/>
		</g>
		<circle class="st1" cx="164.75" cy="221.23" r="5.16"/>
		<circle class="st1" cx="80.62" cy="97.95" r="30.21"/>
		<circle class="st1" cx="188.75" cy="18.31" r="5.16"/>
	</g>
</g>
</svg>
